<svg id="bazaarvoice" xmlns="http://www.w3.org/2000/svg" viewBox="0 0 150 150"><defs><style>.cls-1{fill:#00b69e;}.cls-2{fill:#004e5f;}</style></defs><title>bazaarvoice</title><path class="cls-1" d="M9.31,73c0-14.78,0-29.79,0-44.57,0-1.08,0-1.16-1.11-1.12-2.15.09-4.78,0-6.94.05C.08,27.44,0,27.23,0,26.06.05,19.71.05,12.89,0,6.54,0,5.43.07,5.29,1.22,5.3c6.12,0,12.47,0,18.58,0,7.08,0,11.78,4.71,11.78,11.81q0,32.82,0,65.63c0,4.35,0,8.7,0,13A26.15,26.15,0,1,0,61.37,69.1a25.67,25.67,0,0,0-20.67,6c-.31.26-.54.63-1.05.6-.25,0-.23-.78-.23-1.18,0-7.68,0-15.6,0-23.29,0-1,.06-1,1-1.32,16.69-5.9,32.53-4,46.68,6.6a46,46,0,0,1,18.8,33.9c1.47,16.49-4.23,30.29-16.63,41.26A45.66,45.66,0,0,1,64.8,142.87,48.15,48.15,0,0,1,28,133.05c-.8-.61-.91-.48-1.47.5-1.24,2.18-2.64,4.5-3.93,6.64-.34.57-.47.59-1.15.59-6.63,0-13.73,0-20.35,0-.95,0-1.08-.07-1.07-1.05,0-6.51,0-13.49,0-20,0-1,.1-1.06,1.06-1,2.28,0,5,0,7.29,0,1,0,1-.07,1-1C9.3,102.9,9.31,87.85,9.31,73Z"/><path class="cls-2" d="M131.79,83c-10.49.07-18.57-8-18.42-18.93A18.32,18.32,0,1,1,131.79,83Z"/><path class="cls-2" d="M113.37,125.57c-.51-9.54,7.45-18.09,17.33-18.6a18.22,18.22,0,1,1-17.33,18.6Z"/></svg>