<svg xmlns="http://www.w3.org/2000/svg" viewBox="0 0 150 150"><defs><style>.cls-1{fill:#00a8e1;}</style></defs><title>blankettheweb</title><g id="blankettheweb"><circle class="cls-1" cx="62.13" cy="60.2" r="1.93"/><circle class="cls-1" cx="91.73" cy="78.86" r="1.93"/><circle class="cls-1" cx="75" cy="93.66" r="1.93"/><path class="cls-1" d="M51.19,57.63s6.44-8.37,15.44-10.3c0,0-4.5,6.44-4.5,8.37,0,0-2.57-.65-4.5,2.57l-6.44-.64Z"/><path class="cls-1" d="M66,56.34s4.51-7.72,6.44-9c0,0,9-1.93,16.08,3.22a25.3,25.3,0,0,1,4.51,9,29.07,29.07,0,0,0-25.74-1.93C66.63,57,66.63,56.34,66,56.34Z"/><path class="cls-1" d="M95,53.77s5.79,5.14,7.72,12.22c0,0-4.5-5.15-6.44-5.79A27.33,27.33,0,0,0,95,53.77Z"/><path class="cls-1" d="M69.85,58.91s16.09-1.28,22.52,4.51c0,0,1.29,2.57,0,9.65a1.77,1.77,0,0,0-2.57,0S85.3,64.06,69.85,58.91Z"/><path class="cls-1" d="M67.92,62.77S79.5,66,87.23,75c0,0-3.22,4.5,0,7.72a23.06,23.06,0,0,1-8.37,7.72s-2.57-5.14-7.08-1.93a27.56,27.56,0,0,1-9-21.88C63.42,66.63,67.28,65.35,67.92,62.77Z"/><path class="cls-1" d="M96.23,66s1.29,5.79,0,9c0,0,3.87,3.22,0,7.72,0,0,3.22,4.51,1.29,9.65a26.43,26.43,0,0,0,5.15-18.66C103.31,73.07,99.45,67.28,96.23,66Z"/><path class="cls-1" d="M80.15,93.66v1.93s6.43,2.58,10.94,2.58A11.58,11.58,0,0,0,95,95,20,20,0,0,0,93,84.65H91.73C91.09,84.65,84.65,93.66,80.15,93.66Z"/><path class="cls-1" d="M69.85,96.88s3.86,4.5,7.72,1.29c0,0,2.58,3.86,9.66,3.21,0,0-13.52,10.3-34.11-5.15.65-.64,10.94,3.22,16.73.65"/><path class="cls-1" d="M45.4,75.64S46,66,48.62,61.49c0,0,5.15-.65,7.72,0C57,62.13,51.19,65.35,45.4,75.64Z"/><path class="cls-1" d="M58.91,64.7v.65c0,3.86.65,19.3,10.94,27,0,0-5.79,3.86-19.3-2.57,0,0-3.22-1.93-3.86-7.72C46.69,82.72,51.19,69.85,58.91,64.7Z"/><polygon class="cls-1" points="70.5 107.82 78.86 107.82 78.86 123.26 75 127.77 70.5 124.55 70.5 107.82"/><path class="cls-1" d="M78.86,123.26a14,14,0,0,1,9,12.87,13.52,13.52,0,0,1-27,0,14,14,0,0,1,9-12.87"/><polygon class="cls-1" points="94.95 101.38 101.38 95.59 112.32 106.53 112.32 112.32 106.53 112.97 94.95 101.38"/><path class="cls-1" d="M111.68,105.89c5.15-2.58,11.58-1.93,15.44,2.57,5.15,5.15,5.15,13.51,0,19.31-5.15,5.14-13.51,5.14-19.3,0a12.86,12.86,0,0,1-2.58-15.45"/><polygon class="cls-1" points="107.82 79.5 107.82 71.14 123.26 71.14 127.12 75 123.9 79.5 107.82 79.5"/><path class="cls-1" d="M122.62,71.14a14,14,0,0,1,12.87-9,13.52,13.52,0,0,1,0,27,14,14,0,0,1-12.87-9"/><polygon class="cls-1" points="101.38 55.05 94.95 49.26 105.89 38.32 112.32 38.32 112.97 43.47 101.38 55.05"/><path class="cls-1" d="M111.68,44.11c5.15,2.58,11.58,1.93,15.44-2.57,5.15-5.15,5.15-13.51,0-19.31-5.15-5.14-13.51-5.14-19.3,0a12.86,12.86,0,0,0-2.58,15.45"/><polygon class="cls-1" points="78.86 42.18 70.5 42.18 70.5 26.74 75 22.88 78.86 26.1 78.86 42.18"/><path class="cls-1" d="M78.86,27.38a14,14,0,0,0,9-12.87,13.52,13.52,0,0,0-27,0,14,14,0,0,0,9,12.87"/><polygon class="cls-1" points="54.41 49.26 48.62 55.05 37.68 44.11 37.68 38.32 42.83 37.68 54.41 49.26"/><path class="cls-1" d="M44.11,38.32c2.58-5.15,1.93-11.58-2.57-15.44a13.2,13.2,0,0,0-18.66,0c-5.15,5.15-5.15,13.51,0,19.3a12.84,12.84,0,0,0,15.44,2.58"/><polygon class="cls-1" points="42.18 71.14 42.18 79.5 26.74 79.5 22.23 75 25.45 71.14 42.18 71.14"/><path class="cls-1" d="M27.38,79.5a14,14,0,0,1-12.87,9A13.19,13.19,0,0,1,1,75,13.59,13.59,0,0,1,14.51,61.49a14,14,0,0,1,12.87,9"/><polygon class="cls-1" points="48.62 95.59 54.41 101.38 43.47 112.32 37.68 112.32 37.03 107.17 48.62 95.59"/><path class="cls-1" d="M44.11,111.68c2.58,5.15,1.93,11.58-2.57,15.44-5.15,5.15-13.51,5.15-19.31,0s-5.14-13.51,0-19.3a12.86,12.86,0,0,1,15.45-2.58"/></g></svg>