<svg xmlns="http://www.w3.org/2000/svg" viewBox="0 0 150 150"><defs><style>.cls-1{fill:#44b395;}.cls-2{fill:#ebebeb;}.cls-3{fill:#99e0cd;}</style></defs><title>cartstack</title><g id="cartstack"><g id="mQkKEi"><path class="cls-1" d="M149.82,33c-9.14-5-18.06-10-27.9-13.16a80.87,80.87,0,0,0-29-3.62l-5.7.28s-.6,3.42-.87,5.5C83.6,43.05,80.3,64,77.11,85c-.32,2.06-.79,5.33-.79,5.33s3.08-.42,5.35-.8c15.92-2.71,31.8-2.81,47,3.91a35.39,35.39,0,0,1,13.25,9.42c-26.07-10.4-52.22-8.2-79-1,1.1-9.23,2.1-18,3.18-26.76C69,52.25,71.84,29.41,74.62,6.56c.15-1.26.45-3.65.45-3.65l2.87-.09C99.35,2.15,119.48,6,137,19.28A54.37,54.37,0,0,1,149.82,33Z"/><path class="cls-2" d="M110.38,121.55a161,161,0,0,0-72.3,27.35c-4.52-11.12-8.88-21.8-13.19-32.5C17.51,98.11,10.33,79.74,2.68,61.57L0,55.2s3.6-1.63,6.06-2.66a150,150,0,0,1,23.13-7.67c1.34-.32,4.07-.92,4.07-.92l2,12.35s-2.75.87-4.17,1.28L18.46,61.26s2.58,7.3,4.76,13c7,18.24,14.05,36.47,20.75,54.83,1.35,3.69,2.38,4.39,5.93,2.53,17.05-8.91,35.36-12.37,54.48-12,2,0,12.62,1.42,12.62,1.42S111.91,121.34,110.38,121.55Z"/><path class="cls-3" d="M128.1,110.67c-13.4.61-25.53-.48-37.66,1.14C76.85,113.63,63.79,117,51.6,123.26c-1.63.84-3.5,1.55-3.5,1.55s-.36-2-.62-3.67c-3.95-25.89-8.18-51.74-12.3-77.6-.31-2-.48-3.95-.76-5.92-.79-5.48-1.57-11.19-1.57-11.19S38.1,25,43.68,23.81a141.73,141.73,0,0,1,21.67-2.74c3.32-.09,5.13,0,5.13,0L69.26,31.33s-1.57.08-3.09.23A103.91,103.91,0,0,0,54.5,33.45C51.83,34,47.69,35,47.69,35s.67,4.75,1,6.91c1.78,12,3.23,24,4.87,36,1.22,8.94,2.77,17.85,3.67,26.83.2,1.93.45,4.51.45,4.51s3.07-.49,4.78-.93a115.4,115.4,0,0,1,32.76-3.81A99.82,99.82,0,0,1,128.1,110.67Z"/></g></g></svg>