<svg xmlns="http://www.w3.org/2000/svg" viewBox="0 0 150 150"><defs><style>.cls-1{fill:#5f98d1;}.cls-2{fill:#3a6da1;}.cls-3{fill:#fff;}</style></defs><title>email</title><g id="email"><circle class="cls-1" cx="75" cy="75" r="75"/><path class="cls-2" d="M121.82,43.2H28L62,78.6l9.81,9.93c-5.34-1.22-5.67-2-8-3.91-1.25-1-3.64-3.77-7.28-7.49L25.85,45.84v58.25l2.42,2.42-.27.29,43.1,43.1c1.29.07,2.59.1,3.9.1a75,75,0,0,0,75-75c0-1.24,0-2.48-.09-3.71Z"/><polygon class="cls-3" points="25.85 45.84 25.85 104.09 54.25 74.85 25.85 45.84"/><polygon class="cls-3" points="124.16 45.84 124.16 104.09 95.89 74.97 124.16 45.84"/><path class="cls-3" d="M28,43.2h93.82L85,81.6a13.92,13.92,0,0,1-20.08,0Z"/><path class="cls-3" d="M87.08,83.64a16.85,16.85,0,0,1-24.33,0l-6.26-6.51L28,106.8h93.82L93.33,77.13Z"/></g></svg>