<svg xmlns="http://www.w3.org/2000/svg" viewBox="0 0 150 150"><defs><style>.cls-1{fill:#3b5998;}.cls-2{fill:#fff;}</style></defs><title>facebookpixel</title><g id="facebookpixel"><circle class="cls-1" cx="75" cy="75" r="75"/><path class="cls-2" d="M121.67,73.58,97.55,49.46a2.06,2.06,0,0,0-2.83,0l-5.23,5.23a2,2,0,0,0,0,2.83L107,75,89.49,92.47a2,2,0,0,0,0,2.83l5.23,5.23a2,2,0,0,0,2.83,0l24.12-24.12A2,2,0,0,0,121.67,73.58Z"/><path class="cls-2" d="M60.51,92.47,43,75,60.51,57.52a2,2,0,0,0,.59-1.42,2,2,0,0,0-.59-1.41l-5.23-5.23a2,2,0,0,0-1.41-.59,2,2,0,0,0-1.42.59L28.33,73.58a2,2,0,0,0,0,2.83l24.12,24.11a2,2,0,0,0,1.42.59,2,2,0,0,0,1.41-.59l5.23-5.22A2,2,0,0,0,60.51,92.47Z"/><path class="cls-2" d="M88.72,41.34a2.06,2.06,0,0,0-1.19-1l-4.24-1.25a2,2,0,0,0-2.49,1.35L61.12,107.13a2,2,0,0,0,.16,1.52,2.06,2.06,0,0,0,1.19,1l4.24,1.25a1.87,1.87,0,0,0,.57.08,2,2,0,0,0,1.92-1.43L88.88,42.87A2,2,0,0,0,88.72,41.34Z"/></g></svg>