<svg xmlns="http://www.w3.org/2000/svg" xmlns:xlink="http://www.w3.org/1999/xlink" viewBox="0 0 150 150"><defs><style>.cls-1{fill:#4fc2f6;}.cls-2{fill:#4284f3;}.cls-3{fill:url(#linear-gradient);}.cls-4{fill:#70cdf8;}.cls-5{fill:#3a71db;}.cls-6{fill:#45a4e0;}.cls-7{fill:#659af3;}.cls-8{fill:#376ad3;}.cls-9{fill:#3564cc;}.cls-10{fill:url(#linear-gradient-2);}</style><linearGradient id="linear-gradient" x1="90.33" y1="42.66" x2="101.58" y2="53.91" gradientUnits="userSpaceOnUse"><stop offset="0" stop-color="#3a71db"/><stop offset="1" stop-color="#4284f3"/></linearGradient><linearGradient id="linear-gradient-2" x1="61.79" y1="99.29" x2="87.37" y2="143.6" gradientUnits="userSpaceOnUse"><stop offset="0" stop-color="#3564cc"/><stop offset="1" stop-color="#4181ef"/></linearGradient></defs><title>google-tagmanager</title><g id="google-tagmanager"><path class="cls-1" d="M.34,76.22a5.48,5.48,0,0,1,0-2.67,12.12,12.12,0,0,1,3.78-6.23Q36,35.54,67.77,3.7a10.31,10.31,0,0,1,13.66-.87,11.76,11.76,0,0,1,1.1,1l21.9,21.9c.44.44.89.88,1.35,1.3a.41.41,0,0,1,.08.25c-.23.54-.74.84-1.1,1.28q-1.42,1.39-2.82,2.82Q89,44.34,76,57.31L74.36,59,59.27,74.05c-.82.82-.82.83,0,1.62L74.39,90.82c.29.29,31.61,31.54,31.89,31.84,0,.08-16.69,14.75-26.28,24.34a49.59,49.59,0,0,1-5,1H71c-.41-.14-27.25-26-27.53-26.26Q23.21,101.49,2.93,81.22A9.74,9.74,0,0,1,.34,76.22Z"/><path class="cls-2" d="M150,74.5a3.66,3.66,0,0,1-.15,1.91A11.16,11.16,0,0,1,146.43,82q-19.82,19.72-39.57,39.52c-.36.36-.65.86-1.23.94a18.42,18.42,0,0,1-2.62-2.45c-.57-.52-27.88-28.45-27.88-28.45s4.37-4.51,4.73-4.87q5.48-5.51,11-11c.88-.88.88-.89,0-1.75-2.55-2.55-15.59-15.92-15.59-15.92L105.77,27.2s7.34,7.27,7.57,7.47.49.48.74.72Q130.39,51.69,146.7,68A10.78,10.78,0,0,1,150,74.5Z"/><polygon class="cls-3" points="75.23 58.09 105.72 27.27 116.89 38.6 86.19 69.3 75.23 58.09"/><path class="cls-4" d="M105.78,27.14c-.46,0-.68-.41-1-.69L82.13,3.76A10.08,10.08,0,0,0,68,3.78Q35.69,36.1,3.35,68.42A9.86,9.86,0,0,0,.57,73.19c0,.16-.07.3-.24.36a9.73,9.73,0,0,1,3.11-6.19L53.8,17,67.69,3.11A10.1,10.1,0,0,1,75.32,0a9.79,9.79,0,0,1,6.89,2.86q12,11.94,23.88,23.89a.72.72,0,0,1,.11.15C106.13,27.1,106,27.21,105.78,27.14Z"/><path class="cls-5" d="M105.59,122.43c.28-.24.57-.48.84-.74q20-20,40.08-40.06a10.07,10.07,0,0,0,3.09-5.19s0-.07,0-.07l.16,0A8.73,8.73,0,0,1,147.1,82q-16.36,16.4-32.75,32.76Q98.27,130.82,82.2,146.9a10.22,10.22,0,0,1-11,2.15,2,2,0,0,1-.31-.2,2.4,2.4,0,0,1,.61-.66.65.65,0,0,1,.39-.05,10.16,10.16,0,0,0,8-.74,9.83,9.83,0,0,0,2.28-1.77l22.35-22.34C104.84,123,105.1,122.54,105.59,122.43Z"/><path class="cls-6" d="M.34,76.22c.29-.16.2.1.22.21a8.27,8.27,0,0,0,2.31,4.39q20.47,20.5,41,41c.22.22.47.41.7.61,0,.45-.27.45-.59.41-.25-.23-.52-.44-.76-.68L3.26,82.2A9.09,9.09,0,0,1,.34,76.22Z"/><path class="cls-7" d="M105.78,27.14l.42-.24c.23.21.47.42.69.64q20,20,40.05,40.06a9.67,9.67,0,0,1,3,6.9,11.93,11.93,0,0,0-2-4.75c-.2-.24-.37-.51-.58-.72Q130.34,52,113.28,34.92c-.18-.18-.38-.33-.57-.49-.83-.4-1.31-1.2-2-1.77s-1.08-1.27-1.72-1.8-1.13-1.12-1.65-1.73-1.24-1-1.56-1.82Z"/><path class="cls-8" d="M71.52,148.27c0,.39-.25.54-.61.58a5.82,5.82,0,0,1-2.44-1.48c-3.75-3.72-7.47-7.48-11.2-11.22a.47.47,0,0,1,.12-.63c.45-.15.67.21.92.45.71.68,1.39,1.38,2.09,2.06q2.7,2.75,5.45,5.46A22,22,0,0,0,71.52,148.27Z"/><path class="cls-9" d="M57.48,135.54l-.21.61-9.92-9.86c-1.14-1.14-3.39-3.46-3.39-3.46l.52-.46s2.88,2.61,3.74,3.49,1.63,1.64,2.45,2.45c1.42,1.45,2.86,2.87,4.3,4.3A13.29,13.29,0,0,1,57.48,135.54Z"/><path class="cls-10" d="M44.48,122.37c.25-.28,30.67-30.79,30.67-30.79l30.63,30.83s-16,16-23.62,23.7c-2.53,2.53-5.18,3.65-10.59,2.3a20.06,20.06,0,0,1-3.52-2.29S44.49,122.37,44.48,122.37Z"/></g></svg>