<svg xmlns="http://www.w3.org/2000/svg" viewBox="0 0 150 150"><defs><style>.cls-1{fill:#ee6e06;}</style></defs><title>navis</title><g id="navis"><path class="cls-1" d="M43.28,28.9l11,15,4.29.07c21.42.52,42.6,2.75,63,9.82,7.37,2.56,14.47,5.72,20.54,10.76,10.17,8.41,10.52,18.24,1,27.33-5.72,5.45-12.66,9-19.85,12-17.41,7.33-46.82,13.23-67.07,13.45,4-7,12.38-21.68,12.38-21.68s3.08-.26,5.1-.49c13.21-1.53,26.23-3.84,38.78-8.39a45.63,45.63,0,0,0,13.31-7c6.71-5.38,6.74-11.45-.17-16.58C116.78,56.7,106.35,54.11,95.88,52,67.31,46.18,6.64,49.45,0,50.13c9.23-3.05,32.47-5.72,32.47-5.72S41.3,31.56,43.28,28.9Z"/><path class="cls-1" d="M22.56,76.43a82.46,82.46,0,0,0,44.92-.94c-8.22,13.63-15.92,26.38-24.08,39.93Z"/></g></svg>