<svg xmlns="http://www.w3.org/2000/svg" viewBox="0 0 150 150"><defs><style>.cls-1{fill:#374649;}.cls-2{fill:#fec915;}</style></defs><title>integration-icons</title><g id="routific"><path class="cls-1" d="M118.88,48.33c0,4.62,0,9.23,0,13.84a4,4,0,0,1-2.15,3.71q-11.85,6.83-23.68,13.69a4.3,4.3,0,0,1-4.71,0Q76.54,72.69,64.67,65.89a4.06,4.06,0,0,1-2.2-3.79q0-13.76,0-27.49a4.06,4.06,0,0,1,2.18-3.81q12-6.89,23.92-13.81a4,4,0,0,1,4.22,0c7.89,4.56,15.78,9.14,23.69,13.66a4.4,4.4,0,0,1,2.42,4.23C118.84,39.35,118.88,43.84,118.88,48.33Z"/><path class="cls-2" d="M56.69,48.11c0,4.59,0,9.17,0,13.75a4.05,4.05,0,0,1-2.19,3.8Q42.72,72.43,31,79.26a4.49,4.49,0,0,1-5,0Q14.28,72.42,2.48,65.68A4.14,4.14,0,0,1,.25,61.81q0-13.74,0-27.49A4,4,0,0,1,2.4,30.58q11.93-6.87,23.86-13.77a4.1,4.1,0,0,1,4.39,0L54.59,30.61a4,4,0,0,1,2.1,3.66Z"/><path class="cls-2" d="M93.32,101.77c0-4.58,0-9.16,0-13.74a4,4,0,0,1,2.14-3.73q11.94-6.87,23.86-13.78a4.08,4.08,0,0,1,4.39,0l24,13.87a3.77,3.77,0,0,1,2,3.43q0,14,0,28.05a3.79,3.79,0,0,1-2,3.42l-24.1,13.92a3.87,3.87,0,0,1-4.14,0L95.36,119.3a3.88,3.88,0,0,1-2-3.6C93.33,111.06,93.32,106.42,93.32,101.77Z"/><path class="cls-1" d="M88,101.87c0,4.62,0,9.23,0,13.84a4,4,0,0,1-2.15,3.71Q73.9,126.29,62,133.19a4.08,4.08,0,0,1-4.39,0q-11.91-6.9-23.84-13.76a4,4,0,0,1-2.16-3.71q0-13.84,0-27.68a4,4,0,0,1,2.16-3.71q11.93-6.85,23.84-13.76a4.06,4.06,0,0,1,4.38,0q12,6.93,23.92,13.82A3.84,3.84,0,0,1,88,87.94C88,92.59,88,97.23,88,101.87Z"/></g></svg>