<svg xmlns="http://www.w3.org/2000/svg" viewBox="0 0 150 150"><defs><style>.cls-1{fill:#6a8c40;}.cls-2{fill:#9c3;}.cls-3{fill:#9bca3b;}.cls-4{fill:#729e01;}.cls-5{fill:#6a8c41;}</style></defs><title>smartwaiver</title><g id="smartwaiver"><path class="cls-1" d="M40.85,79.44,12.51,62.26a6.09,6.09,0,0,0-8.93,3.35A48.6,48.6,0,0,0,1.35,88.14c3.13,23.43,23.21,41.28,50,48.42a43.85,43.85,0,0,1-7.81-48.2A6.78,6.78,0,0,0,40.85,79.44Z"/><path class="cls-2" d="M75.43,15c-26.11,3.57-48,15.84-61.36,31.9a6.24,6.24,0,0,0,1.56,8.93l31,19A6.42,6.42,0,0,0,54,74.08,43.14,43.14,0,0,1,77.22,63.37a43.68,43.68,0,0,1,33,8.71,6.12,6.12,0,0,0,8-.67l28.78-30.79a6.15,6.15,0,0,0-.67-8.93C129.2,18.08,103.32,11.16,75.43,15Z"/><path class="cls-3" d="M100.64,134.55H66.73a8.71,8.71,0,0,1-8.7-8.7V91.93a8.71,8.71,0,0,1,8.7-8.7h33.69a8.71,8.71,0,0,1,8.7,8.7v33.7A8.57,8.57,0,0,1,100.64,134.55Z"/><path class="cls-4" d="M40.85,79.44,12.51,62.26a6.09,6.09,0,0,0-8.93,3.35A48.6,48.6,0,0,0,1.35,88.14c3.13,23.43,23.21,41.28,50,48.42a43.85,43.85,0,0,1-7.81-48.2A6.78,6.78,0,0,0,40.85,79.44Z"/><path class="cls-3" d="M75.43,15c-26.11,3.57-48,15.84-61.36,31.9a6.24,6.24,0,0,0,1.56,8.93l31,19A6.42,6.42,0,0,0,54,74.08,43.14,43.14,0,0,1,77.22,63.37a43.68,43.68,0,0,1,33,8.71,6.12,6.12,0,0,0,8-.67l28.78-30.79a6.15,6.15,0,0,0-.67-8.93C129.2,18.08,103.32,11.16,75.43,15Z"/><path class="cls-5" d="M100.64,134.55H66.73a8.71,8.71,0,0,1-8.7-8.7V91.93a8.71,8.71,0,0,1,8.7-8.7h33.69a8.71,8.71,0,0,1,8.7,8.7v33.7A8.57,8.57,0,0,1,100.64,134.55Z"/></g></svg>