<svg xmlns="http://www.w3.org/2000/svg" viewBox="0 0 150 150"><defs><style>.cls-1{fill:#f16823;}.cls-2{fill:#f16824;}</style></defs><title>sojern</title><g id="sojern"><path class="cls-1" d="M115.86,75.12A40,40,0,0,0,114.61,65a40.88,40.88,0,0,0-8-15.73A41.35,41.35,0,0,0,92.41,38.13,19.7,19.7,0,0,0,89,36.73l-.44-.12s.07-.29.1-.44c.74-3.34,1.52-6.67,2.21-10,.26-1.27.56-2.54.78-3.82l.13-.72.74.24a55.08,55.08,0,0,1,16.62,8.76,56,56,0,0,1,14,15.75,58.23,58.23,0,0,1,4.55,9.49,49.08,49.08,0,0,1,2.08,7.24c.05.22.18.58.18.58l.5.31,16.21,9.34c.83.48,1.64,1,2.49,1.43l.72.35-.68.41-7.59,4.39-11.31,6.5-.36.22s-.12.4-.16.6c-.53,2.17-1.11,4.32-1.84,6.43a56.91,56.91,0,0,1-3.27,7.56,55.74,55.74,0,0,1-15.59,18.52,53.4,53.4,0,0,1-11.58,6.84A51.78,51.78,0,0,1,87,129.9l-.59.13-.26.48q-5.34,9.27-10.67,18.54l-.51.88s-.31-.41-.55-.81l-7.68-13.26c-1-1.78-2.06-3.54-3.07-5.32a5.24,5.24,0,0,1-.25-.55l-.58-.1a52.4,52.4,0,0,1-12.29-4.22,54.85,54.85,0,0,1-13-8.67A55.52,55.52,0,0,1,23.87,98.35a51.49,51.49,0,0,1-3.59-10.8c-.09-.41-.17-.85-.17-.85L19,86.09c-2.53-1.4-5-2.88-7.52-4.33L.94,75.63l-.82-.48L.9,74.7l10.84-6.28c2.61-1.51,5.22-3,7.83-4.5l.48-.25s.09-.47.14-.69A56.81,56.81,0,0,1,22,56.7,55.66,55.66,0,0,1,33.07,37.8,56,56,0,0,1,45,27.67a53.07,53.07,0,0,1,10.9-5.3l1-.36,1.15-.32.21,1.08s.94,4.59,1.43,6.89c.46,2.13.92,4.25,1.4,6.38.05.23.13.55.13.55l-.51.19A40.72,40.72,0,0,0,44.35,48a39.33,39.33,0,0,0-7.53,12.28,37.81,37.81,0,0,0-2.59,11.27c-.09,1.52-.22,3-.17,4.58a40.15,40.15,0,0,0,13.8,29.69,38.87,38.87,0,0,0,12.31,7.46,43.41,43.41,0,0,0,9.32,2.39,40.36,40.36,0,0,0,9.57.2,39.09,39.09,0,0,0,10.61-2.52,40.93,40.93,0,0,0,14-9.1,40.05,40.05,0,0,0,7.08-9.37,40.51,40.51,0,0,0,3.38-8A34.08,34.08,0,0,0,115.55,80,43.35,43.35,0,0,0,115.86,75.12Z"/><path class="cls-2" d="M74.83,86.07s-.64-3.68-1-5.51-.71-3.84-1-5.76c-.44-2.45-.87-4.91-1.31-7.36l-1-5.69q-.54-3.14-1.09-6.28c-.42-2.39-.86-4.78-1.29-7.17-.37-2.07-.72-4.13-1.09-6.19l-1.38-7.69c-.45-2.53-.89-5.06-1.34-7.6-.34-1.92-.66-3.85-1-5.76,0-.21-.12-.67-.12-.67s.19-.32.31-.54q2.5-4.29,5-8.6,3-5.25,6-10.51L74.92,0l.4.72c2.15,3.75,4.34,7.47,6.52,11.2,1.55,2.67,3.09,5.34,4.65,8l.28.52s-.15.64-.2.89c-.55,3.15-1.1,6.31-1.67,9.46-.46,2.53-1,5.05-1.41,7.59s-1,5.17-1.32,7.79c-.23,1.76-.72,3.49-1,5.25-.4,2.69-1,5.33-1.4,8-.22,1.71-.65,3.39-1,5.09-.49,2.73-.94,5.47-1.42,8.2-.3,1.67-.64,3.33-.94,5C76,80.52,75,86.08,75,86.08l-.08.42Z"/></g></svg>